<?xml version="1.0" encoding="utf-8" ?>
<svg baseProfile="full" height="1024" version="1.1" width="1024" xmlns="http://www.w3.org/2000/svg" xmlns:ev="http://www.w3.org/2001/xml-events" xmlns:xlink="http://www.w3.org/1999/xlink"><defs /><path d="M 354,782 L 353,783 L 351,783 L 350,784 L 349,784 L 348,785 L 347,785 L 346,786 L 345,786 L 339,792 L 339,793 L 338,794 L 338,795 L 337,796 L 337,863 L 686,863 L 686,797 L 685,796 L 685,794 L 683,792 L 683,791 L 677,785 L 676,785 L 675,784 L 673,784 L 672,783 L 670,783 L 669,782 Z" fill="#16a34a" stroke="none" /><path d="M 280,159 L 279,160 L 278,160 L 276,162 L 275,162 L 273,164 L 273,165 L 271,167 L 271,168 L 270,169 L 270,171 L 269,172 L 269,207 L 268,208 L 196,208 L 195,209 L 192,209 L 191,210 L 189,210 L 188,211 L 186,211 L 185,212 L 184,212 L 183,213 L 182,213 L 181,214 L 180,214 L 178,216 L 177,216 L 175,218 L 174,218 L 166,226 L 166,227 L 163,230 L 163,231 L 162,232 L 162,233 L 160,235 L 160,236 L 159,237 L 159,239 L 158,240 L 158,241 L 157,242 L 157,245 L 156,246 L 156,249 L 155,250 L 155,276 L 156,277 L 156,285 L 157,286 L 157,292 L 158,293 L 158,298 L 159,299 L 159,303 L 160,304 L 160,308 L 161,309 L 161,312 L 162,313 L 162,316 L 163,317 L 163,320 L 164,321 L 164,324 L 165,325 L 165,327 L 166,328 L 166,330 L 167,331 L 167,333 L 168,334 L 168,336 L 169,337 L 169,339 L 170,340 L 170,342 L 171,343 L 171,345 L 172,346 L 172,347 L 173,348 L 173,350 L 174,351 L 174,352 L 175,353 L 175,355 L 176,356 L 176,357 L 177,358 L 177,359 L 178,360 L 178,362 L 179,363 L 179,364 L 180,365 L 180,366 L 181,367 L 181,368 L 182,369 L 182,370 L 183,371 L 183,372 L 184,373 L 184,374 L 185,375 L 185,376 L 186,377 L 186,378 L 188,380 L 188,381 L 189,382 L 189,383 L 190,384 L 190,385 L 192,387 L 192,388 L 193,389 L 193,390 L 195,392 L 195,393 L 197,395 L 197,396 L 199,398 L 199,399 L 202,402 L 202,403 L 204,405 L 204,406 L 207,409 L 207,410 L 212,415 L 212,416 L 220,424 L 220,425 L 228,433 L 229,433 L 238,442 L 239,442 L 243,446 L 244,446 L 247,449 L 248,449 L 250,451 L 251,451 L 254,454 L 255,454 L 257,456 L 258,456 L 260,458 L 261,458 L 263,460 L 264,460 L 265,461 L 266,461 L 268,463 L 269,463 L 270,464 L 271,464 L 272,465 L 273,465 L 274,466 L 275,466 L 276,467 L 277,467 L 279,469 L 280,469 L 281,470 L 282,470 L 283,471 L 284,471 L 285,472 L 287,472 L 288,473 L 289,473 L 290,474 L 291,474 L 292,475 L 293,475 L 294,476 L 296,476 L 297,477 L 298,477 L 299,478 L 301,478 L 302,479 L 303,479 L 304,480 L 306,480 L 307,481 L 309,481 L 310,482 L 312,482 L 313,483 L 315,483 L 316,484 L 319,484 L 320,485 L 323,485 L 324,486 L 327,486 L 328,487 L 332,487 L 333,488 L 335,488 L 336,489 L 337,488 L 338,488 L 339,489 L 346,489 L 353,496 L 353,497 L 362,506 L 362,507 L 368,513 L 369,513 L 370,514 L 370,515 L 371,515 L 380,524 L 381,524 L 386,529 L 387,529 L 391,533 L 392,533 L 394,535 L 395,535 L 398,538 L 399,538 L 401,540 L 402,540 L 405,543 L 406,543 L 407,544 L 408,544 L 410,546 L 411,546 L 413,548 L 414,548 L 415,549 L 416,549 L 418,551 L 419,551 L 420,552 L 421,552 L 422,553 L 423,553 L 424,554 L 425,554 L 426,555 L 427,555 L 428,556 L 429,556 L 430,557 L 431,557 L 432,558 L 433,558 L 434,559 L 435,559 L 436,560 L 437,560 L 438,561 L 440,561 L 441,562 L 442,562 L 443,563 L 445,563 L 446,564 L 447,564 L 448,565 L 450,565 L 451,566 L 453,566 L 454,567 L 456,567 L 457,568 L 458,568 L 459,569 L 460,569 L 462,571 L 462,572 L 463,573 L 463,574 L 464,575 L 464,579 L 465,580 L 465,588 L 466,589 L 466,620 L 465,621 L 465,627 L 464,628 L 464,633 L 463,634 L 463,638 L 462,639 L 462,642 L 461,643 L 461,645 L 460,646 L 460,649 L 459,650 L 459,652 L 458,653 L 458,654 L 457,655 L 457,657 L 456,658 L 456,660 L 455,661 L 455,662 L 454,663 L 454,665 L 453,666 L 453,667 L 452,668 L 452,669 L 451,670 L 451,671 L 449,673 L 449,674 L 448,675 L 448,676 L 447,677 L 447,678 L 445,680 L 445,681 L 443,683 L 443,684 L 441,686 L 441,687 L 438,690 L 438,691 L 433,696 L 433,697 L 419,711 L 418,711 L 413,716 L 412,716 L 409,719 L 408,719 L 407,720 L 406,720 L 404,722 L 403,722 L 401,724 L 400,724 L 398,726 L 397,726 L 394,729 L 393,729 L 391,731 L 391,732 L 388,735 L 388,736 L 387,737 L 387,738 L 386,739 L 386,741 L 385,742 L 385,746 L 384,747 L 384,756 L 385,755 L 398,755 L 399,756 L 400,756 L 401,755 L 405,755 L 406,756 L 407,755 L 408,756 L 409,755 L 479,755 L 480,756 L 481,755 L 494,755 L 495,756 L 496,756 L 497,755 L 527,755 L 528,756 L 529,755 L 559,755 L 560,756 L 561,755 L 604,755 L 605,756 L 606,755 L 621,755 L 622,756 L 623,755 L 624,756 L 625,755 L 628,755 L 629,756 L 630,755 L 631,756 L 632,755 L 635,755 L 636,756 L 637,755 L 638,756 L 639,755 L 639,747 L 638,746 L 638,742 L 637,741 L 637,739 L 636,738 L 636,737 L 635,736 L 635,735 L 633,733 L 633,732 L 628,727 L 627,727 L 625,725 L 624,725 L 622,723 L 621,723 L 620,722 L 619,722 L 617,720 L 616,720 L 614,718 L 613,718 L 610,715 L 609,715 L 603,709 L 602,709 L 592,699 L 592,698 L 587,693 L 587,692 L 584,689 L 584,688 L 581,685 L 581,684 L 579,682 L 579,681 L 577,679 L 577,678 L 576,677 L 576,676 L 574,674 L 574,673 L 573,672 L 573,671 L 572,670 L 572,669 L 571,668 L 571,667 L 570,666 L 570,665 L 569,664 L 569,662 L 568,661 L 568,660 L 567,659 L 567,657 L 566,656 L 566,654 L 565,653 L 565,651 L 564,650 L 564,648 L 563,647 L 563,645 L 562,644 L 562,641 L 561,640 L 561,637 L 560,636 L 560,632 L 559,631 L 559,625 L 558,624 L 558,614 L 557,613 L 557,597 L 558,596 L 558,584 L 559,583 L 559,577 L 560,576 L 560,574 L 561,573 L 561,572 L 564,569 L 565,569 L 566,568 L 567,568 L 568,567 L 570,567 L 571,566 L 573,566 L 574,565 L 576,565 L 577,564 L 578,564 L 579,563 L 581,563 L 582,562 L 583,562 L 584,561 L 586,561 L 587,560 L 588,560 L 589,559 L 590,559 L 591,558 L 592,558 L 593,557 L 594,557 L 595,556 L 596,556 L 597,555 L 598,555 L 599,554 L 600,554 L 601,553 L 602,553 L 603,552 L 604,552 L 606,550 L 607,550 L 608,549 L 609,549 L 611,547 L 612,547 L 613,546 L 614,546 L 616,544 L 617,544 L 619,542 L 620,542 L 622,540 L 623,540 L 626,537 L 627,537 L 630,534 L 631,534 L 635,530 L 636,530 L 641,525 L 642,525 L 652,515 L 653,515 L 661,507 L 661,506 L 669,498 L 669,497 L 674,492 L 674,491 L 676,489 L 683,489 L 684,488 L 689,488 L 690,487 L 694,487 L 695,486 L 699,486 L 700,485 L 703,485 L 704,484 L 706,484 L 707,483 L 710,483 L 711,482 L 713,482 L 714,481 L 716,481 L 717,480 L 719,480 L 720,479 L 721,479 L 722,478 L 724,478 L 725,477 L 727,477 L 728,476 L 729,476 L 730,475 L 731,475 L 732,474 L 733,474 L 734,473 L 736,473 L 737,472 L 738,472 L 739,471 L 740,471 L 741,470 L 742,470 L 743,469 L 744,469 L 745,468 L 746,468 L 747,467 L 748,467 L 749,466 L 750,466 L 752,464 L 753,464 L 754,463 L 755,463 L 756,462 L 757,462 L 759,460 L 760,460 L 762,458 L 763,458 L 765,456 L 766,456 L 767,455 L 768,455 L 771,452 L 772,452 L 774,450 L 775,450 L 779,446 L 780,446 L 783,443 L 784,443 L 790,437 L 791,437 L 807,421 L 807,420 L 813,414 L 813,413 L 816,410 L 816,409 L 819,406 L 819,405 L 822,402 L 822,401 L 824,399 L 824,398 L 826,396 L 826,395 L 828,393 L 828,392 L 830,390 L 830,389 L 831,388 L 831,387 L 833,385 L 833,384 L 834,383 L 834,382 L 836,380 L 836,379 L 837,378 L 837,377 L 838,376 L 838,375 L 839,374 L 839,373 L 840,372 L 840,371 L 841,370 L 841,369 L 842,368 L 842,367 L 843,366 L 843,365 L 844,364 L 844,363 L 845,362 L 845,361 L 846,360 L 846,359 L 847,358 L 847,356 L 848,355 L 848,354 L 849,353 L 849,351 L 850,350 L 850,349 L 851,348 L 851,346 L 852,345 L 852,343 L 853,342 L 853,340 L 854,339 L 854,338 L 855,337 L 855,335 L 856,334 L 856,332 L 857,331 L 857,328 L 858,327 L 858,325 L 859,324 L 859,321 L 860,320 L 860,317 L 861,316 L 861,313 L 862,312 L 862,309 L 863,308 L 863,304 L 864,303 L 864,299 L 865,298 L 865,293 L 866,292 L 866,287 L 867,286 L 867,277 L 868,276 L 868,265 L 869,264 L 869,257 L 868,256 L 868,249 L 867,248 L 867,244 L 866,243 L 866,242 L 865,241 L 865,239 L 864,238 L 864,237 L 863,236 L 863,235 L 862,234 L 862,233 L 861,232 L 861,231 L 859,229 L 859,228 L 854,223 L 854,222 L 853,221 L 852,221 L 848,217 L 847,217 L 844,214 L 843,214 L 842,213 L 841,213 L 840,212 L 839,212 L 838,211 L 836,211 L 835,210 L 833,210 L 832,209 L 829,209 L 828,208 L 754,208 L 753,207 L 753,171 L 752,170 L 752,168 L 750,166 L 750,165 L 746,161 L 745,161 L 744,160 L 743,160 L 742,159 Z" fill="#16a34a" stroke="none" /></svg>